<svg width="32" height="32" viewBox="0 0 32 32" fill="none" xmlns="http://www.w3.org/2000/svg">
<path d="M9.924 7.1333C10.776 7.1333 11.564 7.19997 12.284 7.3973C12.9374 7.51736 13.561 7.76374 14.12 8.12263C14.6453 8.45197 15.0387 8.91463 15.3 9.50797C15.5627 10.1013 15.6933 10.828 15.6933 11.6186C15.6933 12.5426 15.4973 13.3333 15.0387 13.9266C14.6453 14.5213 13.9893 15.048 13.2027 15.444C14.3173 15.7746 15.1693 16.368 15.6933 17.1586C16.2187 17.9506 16.5467 18.94 16.5467 20.0613C16.5467 20.9853 16.3493 21.776 16.0213 22.436C15.6933 23.096 15.1693 23.6893 14.5787 24.0853C13.9371 24.5098 13.2278 24.8218 12.4813 25.008C11.6947 25.2066 10.908 25.3386 10.1213 25.3386H1.33333V7.1333H9.924ZM9.39867 14.52C10.12 14.52 10.7107 14.3226 11.1693 13.9933C11.628 13.664 11.8253 13.0693 11.8253 12.344C11.8253 11.948 11.7587 11.552 11.628 11.2893C11.4973 11.0253 11.3 10.8266 11.0387 10.6293C10.776 10.4973 10.5133 10.3653 10.1853 10.3C9.85733 10.2333 9.53067 10.2333 9.136 10.2333H5.33333V14.5213H9.4L9.39867 14.52ZM9.596 22.304C9.98933 22.304 10.3827 22.2373 10.7107 22.172C11.0418 22.109 11.355 21.9738 11.628 21.776C11.8952 21.5829 12.1187 21.3358 12.284 21.0506C12.4147 20.7213 12.5467 20.3253 12.5467 19.864C12.5467 18.94 12.284 18.28 11.76 17.8186C11.2347 17.4226 10.5133 17.2253 9.66133 17.2253H5.33333V22.3053L9.596 22.304ZM22.252 22.2373C22.776 22.7653 23.5627 23.0293 24.612 23.0293C25.3333 23.0293 25.9893 22.832 26.5133 22.5026C27.0387 22.1066 27.3667 21.7106 27.4973 21.3146H30.7107C30.1853 22.8973 29.3987 24.0186 28.3507 24.744C27.3 25.404 26.0547 25.8 24.5467 25.8C23.5818 25.8029 22.6251 25.6238 21.7267 25.272C20.9183 24.9687 20.1974 24.4704 19.628 23.8213C19.0191 23.2141 18.5689 22.4663 18.3173 21.644C17.9893 20.7866 17.8573 19.864 17.8573 18.808C17.8573 17.8186 17.9893 16.896 18.3173 16.0373C18.6327 15.2108 19.0993 14.4502 19.6933 13.7946C20.284 13.2013 21.0053 12.6746 21.792 12.344C22.6676 11.9921 23.603 11.8128 24.5467 11.816C25.6613 11.816 26.6453 12.0146 27.4973 12.476C28.3507 12.9373 29.0053 13.4653 29.5307 14.2573C30.0666 15.018 30.4659 15.8662 30.7107 16.764C30.8413 17.6866 30.9067 18.6106 30.8413 19.6653H21.3333C21.3333 20.7213 21.7267 21.7106 22.252 22.2386V22.2373ZM26.3827 15.312C25.924 14.8506 25.2027 14.5866 24.3493 14.5866C23.849 14.5791 23.3542 14.6921 22.9067 14.916C22.5133 15.1146 22.252 15.3786 21.9893 15.6426C21.748 15.8976 21.5882 16.2189 21.5307 16.5653C21.464 16.896 21.3987 17.1586 21.3987 17.4226H27.3C27.1693 16.4333 26.8413 15.7746 26.3827 15.312ZM20.612 8.38663H27.956V10.168H20.6133V8.38663H20.612Z" fill="#07E2B3"/>
</svg>
