<svg width="27" height="25" viewBox="0 0 27 25" fill="none" xmlns="http://www.w3.org/2000/svg">
<path d="M6.25333 3.66678C6.25298 4.37402 5.97169 5.05216 5.47134 5.55201C4.97099 6.05185 4.29258 6.33247 3.58533 6.33211C2.87809 6.33176 2.19995 6.05047 1.7001 5.55012C1.20026 5.04977 0.919645 4.37136 0.919999 3.66411C0.920352 2.95687 1.20164 2.27873 1.70199 1.77889C2.20234 1.27904 2.88075 0.998426 3.588 0.99878C4.29524 0.999133 4.97338 1.28042 5.47323 1.78077C5.97307 2.28112 6.25369 2.95954 6.25333 3.66678ZM6.33333 8.30678H0.999998V25.0001H6.33333V8.30678ZM14.76 8.30678H9.45333V25.0001H14.7067V16.2401C14.7067 11.3601 21.0667 10.9068 21.0667 16.2401V25.0001H26.3333V14.4268C26.3333 6.20011 16.92 6.50678 14.7067 10.5468L14.76 8.30678Z" fill="#07E2B3"/>
</svg>
